<?xml version="1.0" encoding="UTF-8" standalone="no"?>
<!-- Created with Inkscape (http://www.inkscape.org/) -->

<svg
        width="192"
        height="192"
        viewBox="0 0 50.799999 50.800001"
        version="1.1"
        id="svg5"
        xmlns="http://www.w3.org/2000/svg"
>
    <defs id="defs2"/>
    <style>
        path {
        fill: #2c2c2c;
        }
        @media (prefers-color-scheme: dark) {
        path {
        fill: #eeeeee;
        }
        }
    </style>
    <path
            d="m 28.130005,28.911738 c -1.294731,0 -2.345171,1.049954 -2.345171,2.345171 v 12.507578 c 0,1.294729 1.05044,2.345171 2.345171,2.345171 h 8.076192 l -0.517894,1.563447 h -3.649671 c -0.864782,0 -1.563448,0.698664 -1.563448,1.563447 0,0.864782 0.698666,1.563448 1.563448,1.563448 h 12.507577 c 0.863315,0 1.563447,-0.698666 1.563447,-1.563448 0,-0.864783 -0.700132,-1.563447 -1.563447,-1.563447 h -3.649672 l -0.517892,-1.563447 h 8.076184 c 1.295219,0 2.345171,-1.050442 2.345171,-2.345171 V 31.256909 c 0,-1.295217 -1.049952,-2.345171 -2.345171,-2.345171 z m 19.543102,3.126894 V 42.982765 H 28.911728 V 32.038632 Z M 18.749336,28.911738 c -1.29473,0 -2.34517,1.049954 -2.34517,2.345171 v 17.19792 c 0,1.294729 1.05044,2.345171 2.34517,2.345171 h 3.126894 c 1.294729,0 2.345171,-1.050442 2.345171,-2.345171 v -17.19792 c 0,-1.295217 -1.050442,-2.345171 -2.345171,-2.345171 z m 2.34517,3.126894 c 0.429948,0 0.781724,0.351776 0.781724,0.781725 0,0.429948 -0.351776,0.781723 -0.781724,0.781723 h -1.563447 c -0.429949,0 -0.781723,-0.351775 -0.781723,-0.781723 0,-0.429949 0.351774,-0.781725 0.781723,-0.781725 z m 0,4.690342 h -1.563447 c -0.429949,0 -0.781723,-0.351776 -0.781723,-0.781723 0,-0.429949 0.351774,-0.781723 0.781723,-0.781723 h 1.563447 c 0.429948,0 0.781724,0.351774 0.781724,0.781723 0,0.429947 -0.351776,0.781723 -0.781724,0.781723 z m -0.781723,10.162407 c -0.864783,0 -1.563447,-0.698665 -1.563447,-1.563447 0,-0.864782 0.698664,-1.563447 1.563447,-1.563447 0.864781,0 1.563447,0.698665 1.563447,1.563447 0,0.864782 -0.698666,1.563447 -1.563447,1.563447 z"
            id="path875-6"
            style="stroke-width:0.264583"/>
    <path
            d="m 22.669996,0 c 1.29473,0 2.345171,1.0499528 2.345171,2.3451708 V 14.852749 c 0,1.294728 -1.050441,2.345169 -2.345171,2.345169 h -8.076192 l 0.517893,1.563448 h 3.649672 c 0.864782,0 1.563447,0.698665 1.563447,1.563448 0,0.86478 -0.698665,1.563447 -1.563447,1.563447 H 6.2537913 c -0.8633152,0 -1.5634471,-0.698667 -1.5634471,-1.563447 0,-0.864783 0.7001319,-1.563448 1.5634471,-1.563448 H 9.9034636 L 10.421355,17.197918 H 2.3451708 C 1.0499528,17.197918 0,16.147477 0,14.852749 V 2.3451708 C 0,1.0499528 1.0499528,0 2.3451708,0 Z M 3.1268933,3.1268946 V 14.071025 H 21.888272 V 3.1268946 Z M 32.050666,0 c 1.294727,0 2.345169,1.0499528 2.345169,2.3451708 V 19.543089 c 0,1.294731 -1.050442,2.345172 -2.345169,2.345172 h -3.126895 c -1.294731,0 -2.345171,-1.050441 -2.345171,-2.345172 V 2.3451708 C 26.5786,1.0499528 27.62904,0 28.923771,0 Z m -2.345172,3.1268946 c -0.429948,0 -0.781723,0.3517754 -0.781723,0.7817235 0,0.4299481 0.351775,0.7817237 0.781723,0.7817237 h 1.563448 c 0.429947,0 0.781724,-0.3517756 0.781724,-0.7817237 0,-0.4299481 -0.351777,-0.7817235 -0.781724,-0.7817235 z m 0,4.6903417 h 1.563448 c 0.429947,0 0.781724,-0.3517767 0.781724,-0.7817238 0,-0.429948 -0.351777,-0.7817236 -0.781724,-0.7817236 h -1.563448 c -0.429948,0 -0.781723,0.3517756 -0.781723,0.7817236 0,0.4299471 0.351775,0.7817238 0.781723,0.7817238 z m 0.781724,10.1624057 c 0.864781,0 1.563448,-0.698665 1.563448,-1.563447 0,-0.864782 -0.698667,-1.563446 -1.563448,-1.563446 -0.864783,0 -1.563447,0.698664 -1.563447,1.563446 0,0.864782 0.698664,1.563447 1.563447,1.563447 z"
            id="path875-6-3"
            style="stroke-width:0.264583"/>
    <path
            style="stroke-width:0.264583"
            d="m 37.306641,9.3574219 a 1.5875,1.5875 0 0 0 -1.587891,1.5859371 1.5875,1.5875 0 0 0 1.587891,1.587891 h 3.96875 v 13.470703 a 1.5875,1.5875 0 0 0 1.58789,1.587891 1.5875,1.5875 0 0 0 1.585938,-1.587891 V 10.943359 A 1.5876587,1.5876587 0 0 0 42.863281,9.3574219 Z"
            id="path2073"/>
    <path
            style="stroke-width:0.264583"
            d="M 7.9375,23.210937 A 1.5875,1.5875 0 0 0 6.3496094,24.798828 V 39.855469 A 1.5876587,1.5876587 0 0 0 7.9375,41.443359 h 5.556641 a 1.5875,1.5875 0 0 0 1.58789,-1.58789 1.5875,1.5875 0 0 0 -1.58789,-1.587891 H 9.5253906 V 24.798828 A 1.5875,1.5875 0 0 0 7.9375,23.210937 Z"
            id="path2075"/>
</svg>
